<svg width="56" height="52" viewBox="0 0 56 52" fill="none" xmlns="http://www.w3.org/2000/svg">
<g id="alert-triangle" filter="url(#filter0_dd_13001_996)">
<path id="Icon" d="M27.9995 12.9998V18.3332M27.9995 23.6665H28.0128M26.1533 6.18878L15.1868 25.1309C14.5785 26.1816 14.2743 26.7069 14.3193 27.1381C14.3585 27.5141 14.5555 27.8559 14.8613 28.0782C15.2119 28.3332 15.819 28.3332 17.033 28.3332H38.966C40.1801 28.3332 40.7871 28.3332 41.1377 28.0782C41.4435 27.8559 41.6405 27.5141 41.6797 27.1381C41.7247 26.7069 41.4205 26.1816 40.8123 25.1309L29.8458 6.18878C29.2397 5.1419 28.9366 4.61845 28.5412 4.44265C28.1964 4.2893 27.8027 4.2893 27.4578 4.44265C27.0624 4.61845 26.7594 5.1419 26.1533 6.18878Z" stroke="#FF4F4E" stroke-width="3" stroke-linecap="round" stroke-linejoin="round"/>
</g>
<defs>
<filter id="filter0_dd_13001_996" x="0" y="-1" width="56" height="56" filterUnits="userSpaceOnUse" color-interpolation-filters="sRGB">
<feFlood flood-opacity="0" result="BackgroundImageFix"/>
<feColorMatrix in="SourceAlpha" type="matrix" values="0 0 0 0 0 0 0 0 0 0 0 0 0 0 0 0 0 0 127 0" result="hardAlpha"/>
<feMorphology radius="4" operator="erode" in="SourceAlpha" result="effect1_dropShadow_13001_996"/>
<feOffset dy="4"/>
<feGaussianBlur stdDeviation="3"/>
<feColorMatrix type="matrix" values="0 0 0 0 0.952941 0 0 0 0 0.470588 0 0 0 0 0.466667 0 0 0 0.16 0"/>
<feBlend mode="normal" in2="BackgroundImageFix" result="effect1_dropShadow_13001_996"/>
<feColorMatrix in="SourceAlpha" type="matrix" values="0 0 0 0 0 0 0 0 0 0 0 0 0 0 0 0 0 0 127 0" result="hardAlpha"/>
<feMorphology radius="3" operator="erode" in="SourceAlpha" result="effect2_dropShadow_13001_996"/>
<feOffset dy="10"/>
<feGaussianBlur stdDeviation="7.5"/>
<feColorMatrix type="matrix" values="0 0 0 0 0.952941 0 0 0 0 0.470588 0 0 0 0 0.466667 0 0 0 0.16 0"/>
<feBlend mode="normal" in2="effect1_dropShadow_13001_996" result="effect2_dropShadow_13001_996"/>
<feBlend mode="normal" in="SourceGraphic" in2="effect2_dropShadow_13001_996" result="shape"/>
</filter>
</defs>
</svg>
